<svg width="141" height="424" viewBox="0 0 141 424" fill="none" xmlns="http://www.w3.org/2000/svg">
<g filter="url(#filter0_d_1_5)">
<path d="M126.621 54.0795C114.479 31.5844 108.119 0.0911264 0 2.0907V424H124.308C124.308 424 89.8383 406.166 82.1011 387.008C69.4155 355.597 135.898 345.218 124.308 310.025C112.717 274.831 72.8502 266.534 101.759 210.546C130.668 154.558 136.334 72.0757 126.621 54.0795Z" fill="#0077B6"/>
<path d="M126.621 54.0795C114.479 31.5844 108.119 0.0911264 0 2.0907V424H124.308C124.308 424 89.8383 406.166 82.1011 387.008C69.4155 355.597 135.898 345.218 124.308 310.025C112.717 274.831 72.8502 266.534 101.759 210.546C130.668 154.558 136.334 72.0757 126.621 54.0795Z" stroke="#0077B6" stroke-width="3"/>
</g>
<defs>
<filter id="filter0_d_1_5" x="-1.5" y="0.499969" width="142" height="433" filterUnits="userSpaceOnUse" color-interpolation-filters="sRGB">
<feFlood flood-opacity="0" result="BackgroundImageFix"/>
<feColorMatrix in="SourceAlpha" type="matrix" values="0 0 0 0 0 0 0 0 0 0 0 0 0 0 0 0 0 0 127 0" result="hardAlpha"/>
<feOffset dx="4" dy="4"/>
<feGaussianBlur stdDeviation="2"/>
<feComposite in2="hardAlpha" operator="out"/>
<feColorMatrix type="matrix" values="0 0 0 0 0 0 0 0 0 0 0 0 0 0 0 0 0 0 0.25 0"/>
<feBlend mode="normal" in2="BackgroundImageFix" result="effect1_dropShadow_1_5"/>
<feBlend mode="normal" in="SourceGraphic" in2="effect1_dropShadow_1_5" result="shape"/>
</filter>
</defs>
</svg>
